<?xml version="1.0" encoding="UTF-8"?> <svg xmlns="http://www.w3.org/2000/svg" width="180" height="80" viewBox="0 0 180 80" fill="none"><path fill-rule="evenodd" clip-rule="evenodd" d="M44.0637 34.0168V38.387H54.4051C54.0877 40.8014 53.2842 42.5706 52.0591 43.8106C50.5513 45.3379 48.2003 47.0214 44.0637 47.0214C37.6902 47.0214 32.7055 41.8196 32.7055 35.3677C32.7055 28.9157 37.6902 23.7139 44.0637 23.7139C47.5009 23.7139 50.0106 25.0849 51.8656 26.8441L54.921 23.7542C52.3368 21.2541 48.8996 19.3336 44.0687 19.3336C35.3392 19.3336 27.9985 26.5265 27.9985 35.3677C27.9985 44.2088 35.3392 51.4067 44.0687 51.4067C48.7756 51.4067 52.3319 49.8442 55.1144 46.9105C57.9763 44.0173 58.8641 39.9495 58.8641 36.6631C58.8641 35.6852 58.7897 34.7829 58.6459 34.0168H44.0637ZM131.304 50.7817V20.5131H126.934V50.7817H131.304ZM92.9037 51.4117C98.5431 51.4117 103.136 47.0315 103.136 41.0836C103.136 35.0954 98.5431 30.7555 92.9037 30.7555C87.2643 30.7555 82.6714 35.1357 82.6714 41.0836C82.6714 47.0315 87.2643 51.4117 92.9037 51.4117ZM92.9037 34.8232C95.9937 34.8232 98.6572 37.3687 98.6572 41.0836C98.6572 44.7582 95.9937 47.344 92.9037 47.344C89.8137 47.344 87.1502 44.8035 87.1502 41.0836C87.1502 37.3637 89.8137 34.8232 92.9037 34.8232ZM70.8324 51.4118C76.4718 51.4118 81.0647 47.0315 81.0647 41.0837C81.0647 35.0955 76.4718 30.7556 70.8324 30.7556C65.1929 30.7556 60.6001 35.1358 60.6001 41.0837C60.6001 47.0315 65.1929 51.4118 70.8324 51.4118ZM70.8324 34.8233C73.9224 34.8233 76.5859 37.3688 76.5859 41.0837C76.5859 44.7582 73.9224 47.344 70.8324 47.344C67.7423 47.344 65.0789 44.8036 65.0789 41.0837C65.0789 37.3637 67.7423 34.8233 70.8324 34.8233ZM124.291 31.3806V31.3856H120.04V33.0692H119.881C118.875 31.8544 116.94 30.7606 114.51 30.7606C109.411 30.7606 104.739 35.3324 104.739 41.124C104.739 46.9156 109.411 51.4118 114.51 51.4118C116.945 51.4118 118.879 50.318 119.881 49.0629H120.04V50.5499C120.04 54.5017 117.957 56.6036 114.594 56.6036C111.851 56.6036 110.15 54.6227 109.456 52.9391L105.557 54.5823C106.678 57.3194 109.654 60.6663 114.599 60.6663C119.847 60.6663 124.291 57.5512 124.291 49.9248V31.3856H124.296L124.291 31.3806ZM120.353 41.119C120.353 37.4797 117.957 34.8233 114.907 34.8233C111.856 34.8233 109.227 37.4847 109.227 41.119C109.227 44.7532 111.817 47.339 114.907 47.339C117.997 47.339 120.353 44.7179 120.353 41.119ZM148.326 44.486L151.803 46.8349C150.682 48.5184 147.979 51.4117 143.306 51.4117C137.513 51.4117 133.183 46.8752 133.183 41.0836C133.183 34.9392 137.548 30.7555 142.805 30.7555C148.063 30.7555 150.687 35.0198 151.535 37.3284L152.001 38.5028L138.366 44.2188C139.408 46.2905 141.035 47.349 143.311 47.349C145.588 47.349 147.175 46.2149 148.331 44.491L148.326 44.486ZM137.622 40.7711L146.739 36.9403C146.238 35.6499 144.73 34.7527 142.954 34.7527C140.678 34.7527 137.508 36.789 137.622 40.7761V40.7711Z" fill="#2C2D2C"></path></svg> 