<?xml version="1.0" encoding="UTF-8"?> <svg xmlns="http://www.w3.org/2000/svg" width="180" height="80" viewBox="0 0 180 80" fill="none"><path fill-rule="evenodd" clip-rule="evenodd" d="M52.496 34.3284C53.8365 36.0216 55.0359 37.7148 56.0942 39.5492C56.2353 39.8314 56.2353 40.2547 56.1647 40.5369C56.0236 40.8191 55.7414 40.9602 55.3886 41.0308L52.7077 41.313C52.4255 41.3835 52.2138 41.5952 52.2138 41.8068C52.2138 41.8068 52.3549 48.7209 51.3672 55.5644C51.2966 55.9877 50.8733 56.3405 50.45 56.411C50.2276 56.4666 48.427 56.3908 47.6053 56.3561H47.6053L47.6047 56.3561L47.6022 56.356L47.6012 56.3559L47.598 56.3558L47.5971 56.3558L47.5926 56.3556C47.3788 56.3466 47.2339 56.3405 47.2046 56.3405C47.0635 56.3405 46.993 56.1994 46.993 56.0583C47.4163 52.5307 48.1218 43.9939 47.4869 36.6566C47.4869 36.5155 47.3457 34.8928 46.7813 34.6811C46.1464 34.3989 45.6525 35.0339 45.6525 35.0339C45.6525 35.0339 40.9961 40.5369 41.6311 49.4264C41.6311 49.4264 41.7016 50.273 42.4071 50.4141C42.8204 50.4968 43.3063 50.5552 43.7089 50.6037L43.7089 50.6037L43.7089 50.6037L43.709 50.6037L43.709 50.6037L43.7091 50.6037L43.7091 50.6037C43.9936 50.6379 44.2365 50.6671 44.3826 50.6963C44.3826 50.6963 44.5942 50.6963 44.5942 50.908C44.5942 51.1197 44.4531 53.1657 44.1709 55.9877C44.1709 56.1288 44.1004 56.1994 43.9593 56.1994H40.5022H37.0452C36.9041 56.1994 36.8335 56.0583 36.8335 55.9877C36.6924 54.4356 36.5513 52.2485 36.4808 50.273C36.4808 50.2025 36.5513 50.0614 36.6219 49.9908C37.6802 49.2853 38.3857 48.0859 38.3151 46.816V46.816C38.3151 44.6994 38.3151 39.7608 38.5268 36.5155C38.5973 36.3743 38.5268 35.8805 38.0329 35.8805C37.6802 35.8805 37.4685 36.1627 37.4685 36.5155C37.4685 36.5155 37.1863 40.678 37.1863 43.6412C37.1863 43.6412 37.1863 44.5583 36.3397 44.5583C35.4931 44.5583 35.4931 43.7117 35.4931 43.7117C35.4931 43.7117 35.5636 39.6903 35.6342 36.6566V36.3743C35.5636 36.1627 35.4931 35.951 35.1403 35.951C34.5759 35.951 34.5759 36.586 34.5759 36.586C34.5759 36.586 34.2937 40.1841 34.2937 43.7823C34.2937 43.7823 34.2937 44.6289 33.4471 44.6289C32.6004 44.6289 32.6004 43.7823 32.6004 43.7823C32.6004 43.7823 32.671 39.1259 32.8826 36.586C32.8826 36.586 32.9532 35.951 32.3888 35.8805C31.8244 35.8099 31.8244 36.4449 31.8244 36.4449C31.8244 36.4449 31.4716 41.0308 31.5422 46.9571C31.5422 48.227 32.1771 49.3559 33.306 49.9908C33.4471 49.9908 33.5176 50.1319 33.5176 50.273C33.548 50.3338 33.5784 50.853 33.6257 51.6612C33.6882 52.7289 33.7803 54.3012 33.9409 55.9877V56.0583C33.9409 56.1994 33.8704 56.2699 33.7293 56.2699C31.6603 56.318 30.4774 56.3662 29.8447 56.3919L29.8443 56.3919C29.5495 56.4039 29.3742 56.411 29.2845 56.411C28.579 56.411 28.4379 55.635 28.4379 55.635C27.7324 48.2976 27.6618 46.181 27.5913 41.8068C27.5913 41.8068 27.5913 41.3835 27.0974 41.313C26.6741 41.313 23.9226 41.1013 23.6404 40.5369C23.2876 40.043 23.7109 39.4786 23.7109 39.4786C30.0606 28.9664 38.3857 24.1689 38.9501 23.8867C38.9501 23.8867 38.9501 23.8161 39.0206 23.8161C39.5145 23.4634 40.1495 23.5339 40.7139 23.7456C40.7492 23.7809 40.7844 23.7985 40.8197 23.8161C40.855 23.8338 40.8903 23.8514 40.9255 23.8867C42.4071 24.8039 45.0881 26.7793 45.582 27.2026C45.7231 27.2732 45.8642 27.2732 45.9347 27.2026C45.9347 27.1674 45.9524 27.1497 45.97 27.1321C45.9876 27.1144 46.0053 27.0968 46.0053 27.0615V25.721C46.0053 25.5094 46.0758 25.2977 46.1464 25.1566C46.2875 24.8744 46.5697 24.6628 47.0635 24.6628C48.0177 24.6628 48.8711 24.7636 49.4958 24.8374L49.4959 24.8374C49.6102 24.8509 49.7168 24.8635 49.8151 24.8744C50.5911 25.0155 50.8028 25.5799 50.8733 26.1444C50.8828 26.2106 50.9037 26.3845 50.9341 26.6381L50.9341 26.6386L50.9341 26.6387C51.1307 28.277 51.7251 33.2331 52.2138 33.905C52.2491 33.9403 52.302 34.0109 52.3549 34.0814C52.4078 34.152 52.4607 34.2225 52.496 34.2578V34.3284ZM66.1125 34.8222H70.3456C72.0388 34.8222 72.0388 34.8222 71.8977 36.7977L70.2751 46.0399C69.7106 49.2853 68.2291 51.9663 64.772 53.0951C64.5604 53.1657 63.9254 53.3068 63.5726 53.3068C63.2199 53.3068 63.0082 53.1657 62.5849 52.1779C62.5412 52.0687 62.5009 51.9697 62.464 51.879L62.464 51.8788C62.2624 51.3833 62.1616 51.1356 62.1616 50.8375C62.1616 50.5552 62.3027 50.273 62.9377 50.1319C65.407 49.4264 66.1831 48.1565 66.5358 46.3221L67.9468 38.1381H65.407C64.1371 38.1381 64.1371 38.0676 64.4193 36.4449C64.772 34.8222 64.772 34.8222 66.1125 34.8222ZM84.7382 34.8222C83.0449 34.8222 83.0449 34.8222 82.7627 36.2332L81.4928 43.6412C81.14 45.8283 80.5756 47.0982 78.4591 47.0982C76.4131 47.0982 75.637 45.8283 75.9897 43.9234L77.1891 36.7977C77.5419 34.8222 77.4713 34.8222 75.7075 34.8222C74.0143 34.8222 73.9437 34.8222 73.7321 36.1627L72.4622 43.5706C71.6861 47.8037 74.3671 50.4141 78.1063 50.4141C82.2688 50.4141 84.3854 48.5092 85.0909 44.0645L86.2903 36.7977C86.5725 34.8222 86.5019 34.8222 84.7382 34.8222ZM94.686 45.6872C94.686 46.3221 93.9099 46.9571 92.5694 47.0277C91.1584 47.0982 89.8884 47.0277 87.7013 46.8866C86.6686 46.7489 86.6437 46.8799 86.3808 48.2633L86.3608 48.3681C86.0801 50.0528 86.1485 50.0613 87.2609 50.2004L87.278 50.2025C88.7596 50.4141 90.4528 50.5552 92.4283 50.4847C96.0264 50.3436 98.2841 48.5798 98.2841 45.5461C98.2841 42.9357 96.3086 41.7363 93.3455 40.8897C91.7933 40.3958 91.0878 40.043 91.0878 39.267C91.0878 38.7026 91.6522 38.0676 93.3455 38.0676C94.827 38.0676 96.097 38.1381 97.0847 38.2087C97.8608 38.2792 98.2135 38.1381 98.4957 36.7271C98.7779 35.3161 98.5663 35.0339 97.6491 34.8928C96.5908 34.8222 94.9682 34.7517 93.5571 34.7517C90.1706 34.7517 87.4897 36.5155 87.4897 39.7608C87.4897 42.5124 89.8884 43.4295 92.4283 44.2056L92.6345 44.274C93.8035 44.6613 94.686 44.9537 94.686 45.6872ZM111.266 34.8222H101.6C100.991 34.8222 100.658 34.8222 100.444 34.9812C100.187 35.1721 100.099 35.5919 99.9068 36.5154L99.9068 36.5155C99.6246 38.2087 99.6951 38.2087 100.894 38.2087H104.069L102.306 48.4387C101.953 50.4141 102.023 50.4141 103.787 50.4141C104.683 50.4141 105.105 50.4141 105.345 50.2053C105.559 50.0193 105.63 49.6677 105.763 49.0031L107.597 38.2087H110.631C111.971 38.2087 111.971 38.2087 112.324 36.5155C112.44 35.589 112.492 35.1695 112.308 34.9795C112.155 34.8222 111.841 34.8222 111.266 34.8222ZM130.032 36.3744C129.68 38.0676 129.68 38.0676 128.339 38.0676L122.695 37.997L122.201 40.8191H126.505C127.408 40.8191 127.848 40.8191 128.035 41.0369C128.213 41.2444 128.16 41.6499 128.057 42.4418C127.945 43.26 127.893 43.6469 127.671 43.8299C127.473 43.9939 127.139 43.9939 126.505 43.9939H121.637L121.143 46.9571H126.999C128.269 46.9571 128.269 46.9571 127.986 48.6504C127.97 48.7276 127.954 48.8012 127.939 48.8713C127.784 49.5884 127.709 49.9387 127.492 50.1098C127.285 50.273 126.949 50.273 126.293 50.273H119.52C117.051 50.273 116.98 50.273 117.474 47.5921L119.308 37.1504L119.343 36.9503C119.73 34.6811 119.73 34.6811 122.131 34.6811H129.045C130.315 34.6811 130.385 34.6811 130.032 36.3744ZM135.676 43.5706L137.934 38.632C138.011 38.4019 138.046 38.2968 138.119 38.2489C138.18 38.2087 138.267 38.2087 138.428 38.2087C138.71 38.2087 138.71 38.2087 138.781 38.7026L139.486 43.5706H135.676ZM141.744 36.7271C141.391 34.7517 141.391 34.7517 138.64 34.7517C136.1 34.7517 136.1 34.7517 135.324 36.3744L129.538 48.4387C128.692 50.1319 128.833 50.3436 130.95 50.3436C131.799 50.3436 132.223 50.3436 132.514 50.1474C132.803 49.9527 132.961 49.5647 133.278 48.7915L134.195 46.7455H139.839L140.121 48.7915C140.333 50.3436 140.403 50.3436 142.097 50.3436C144.002 50.3436 144.143 50.2025 143.79 48.3681L141.744 36.7271ZM145.624 34.8222H155.36C156.63 34.8222 156.63 34.8222 156.348 36.5155C155.995 38.2087 155.995 38.2087 154.655 38.2087H151.621L149.787 49.0031C149.654 49.6677 149.584 50.0193 149.369 50.2053C149.129 50.4141 148.707 50.4141 147.811 50.4141C146.048 50.4141 145.977 50.4141 146.33 48.4387L148.094 38.2087H144.919C143.719 38.2087 143.578 38.2087 143.931 36.5155C144.284 34.8222 144.284 34.8222 145.624 34.8222Z" fill="#2C2D2C"></path></svg> 