<?xml version="1.0" encoding="UTF-8"?> <svg xmlns="http://www.w3.org/2000/svg" width="180" height="80" viewBox="0 0 180 80" fill="none"><path fill-rule="evenodd" clip-rule="evenodd" d="M35.5779 24.8334H21.75V39.2417H35.5779V24.8334ZM78.5167 30.9V49.1H75.4843V34.8181H75.4439L70.0259 49.1H68.0043L62.465 34.8181H62.4246V49.1H59.6348V30.9H64.0015L69.0151 44.3815H69.096L74.3926 30.9H78.5167ZM81.0235 32.2903C81.0235 31.7848 81.1853 31.3635 81.5492 31.0264C81.9131 30.6894 82.3174 30.5209 82.8026 30.5209C83.3282 30.5209 83.7729 30.6894 84.0964 31.0264C84.4199 31.3635 84.622 31.7848 84.622 32.2903C84.622 32.7959 84.4603 33.2172 84.0964 33.5542C83.7325 33.8912 83.3282 34.0598 82.8026 34.0598C82.2769 34.0598 81.8726 33.8912 81.5492 33.5542C81.2257 33.175 81.0235 32.7537 81.0235 32.2903ZM84.2986 36.0398V49.1H81.347V36.0398H84.2986ZM93.2341 46.8672C93.6789 46.8672 94.1641 46.7829 94.6897 46.5301C95.2153 46.3195 95.7005 46.0246 96.1453 45.6875V48.5523C95.6601 48.8473 95.1345 49.0579 94.528 49.1843C93.9215 49.3107 93.2746 49.3949 92.5468 49.3949C90.6869 49.3949 89.1909 48.8051 88.0588 47.5834C86.8862 46.3616 86.3202 44.8028 86.3202 42.9491C86.3202 40.8426 86.9267 39.1153 88.0992 37.7672C89.2718 36.419 90.9295 35.7449 93.1128 35.7449C93.6789 35.7449 94.245 35.8292 94.7706 35.9556C95.3366 36.082 95.7814 36.2926 96.1049 36.4611V39.4102C95.6601 39.0732 95.1749 38.7783 94.7301 38.6098C94.245 38.4412 93.7598 38.3148 93.2746 38.3148C92.102 38.3148 91.1721 38.694 90.4443 39.4945C89.7165 40.2949 89.3931 41.3482 89.3931 42.6963C89.3931 44.0023 89.757 45.0556 90.4443 45.7718C91.1317 46.488 92.0616 46.8672 93.2341 46.8672ZM104.515 35.8292C104.757 35.8292 104.96 35.8292 105.162 35.8713C105.364 35.9135 105.526 35.9556 105.647 35.9977V39.1153C105.485 38.9889 105.283 38.8625 104.96 38.7783C104.636 38.694 104.313 38.6098 103.868 38.6098C103.14 38.6098 102.534 38.9468 102.048 39.5787C101.563 40.2107 101.28 41.1797 101.28 42.5278V49.1H98.3286V36.0398H101.28V38.1042H101.321C101.604 37.388 102.008 36.8403 102.534 36.419C103.1 36.0398 103.747 35.8292 104.515 35.8292ZM105.809 42.7806C105.809 40.632 106.415 38.9047 107.547 37.6408C108.72 36.3769 110.337 35.7449 112.399 35.7449C114.34 35.7449 115.876 36.3348 116.968 37.5565C118.06 38.7783 118.626 40.4213 118.626 42.4857C118.626 44.5922 118.019 46.2773 116.887 47.5412C115.715 48.8051 114.138 49.4371 112.116 49.4371C110.175 49.4371 108.639 48.8473 107.507 47.6676C106.375 46.4459 105.809 44.8028 105.809 42.7806ZM108.882 42.6542C108.882 44.0023 109.165 45.0556 109.771 45.7718C110.378 46.488 111.227 46.8672 112.318 46.8672C113.37 46.8672 114.219 46.5301 114.785 45.7718C115.351 45.0556 115.634 44.0023 115.634 42.5699C115.634 41.1797 115.351 40.1264 114.785 39.3681C114.219 38.6519 113.37 38.2727 112.359 38.2727C111.267 38.2727 110.458 38.6519 109.852 39.4102C109.165 40.2107 108.882 41.2639 108.882 42.6542ZM123.033 39.4945C123.033 39.9158 123.154 40.2949 123.437 40.5477C123.72 40.8005 124.286 41.0954 125.216 41.4746C126.389 41.9801 127.238 42.5278 127.683 43.1176C128.168 43.7496 128.41 44.4658 128.41 45.3505C128.41 46.5723 127.966 47.5412 127.036 48.2996C126.146 49.0579 124.893 49.3949 123.356 49.3949C122.831 49.3949 122.265 49.3107 121.618 49.1843C120.971 49.0579 120.445 48.8894 120 48.6787V45.6454C120.526 46.0246 121.133 46.3616 121.739 46.5723C122.346 46.7829 122.912 46.9093 123.437 46.9093C124.084 46.9093 124.61 46.825 124.893 46.6144C125.216 46.4037 125.378 46.1088 125.378 45.6454C125.378 45.2241 125.216 44.8871 124.893 44.55C124.569 44.2551 123.922 43.9181 123.033 43.5389C121.941 43.0755 121.173 42.5278 120.728 41.938C120.283 41.3482 120.041 40.5898 120.041 39.663C120.041 38.4834 120.486 37.5144 121.375 36.756C122.265 35.9977 123.437 35.6185 124.852 35.6185C125.297 35.6185 125.782 35.6607 126.308 35.7871C126.834 35.9135 127.319 36.0398 127.683 36.1662V39.1574C127.278 38.9047 126.834 38.6519 126.308 38.4412C125.782 38.2306 125.257 38.1463 124.771 38.1463C124.205 38.1463 123.761 38.2727 123.478 38.4834C123.195 38.7783 123.033 39.0732 123.033 39.4945ZM129.664 42.7806C129.664 40.632 130.27 38.9047 131.402 37.6408C132.575 36.3769 134.192 35.7449 136.254 35.7449C138.195 35.7449 139.731 36.3348 140.823 37.5565C141.915 38.7783 142.481 40.4213 142.481 42.4857C142.481 44.5922 141.874 46.2773 140.742 47.5412C139.57 48.8051 137.993 49.4371 135.971 49.4371C134.031 49.4371 132.494 48.8473 131.362 47.6676C130.27 46.4459 129.664 44.8028 129.664 42.7806ZM132.737 42.6542C132.737 44.0023 133.02 45.0556 133.626 45.7718C134.233 46.488 135.082 46.8672 136.173 46.8672C137.225 46.8672 138.074 46.5301 138.64 45.7718C139.206 45.0556 139.489 44.0023 139.489 42.5699C139.489 41.1797 139.206 40.1264 138.64 39.3681C138.074 38.6519 137.225 38.2727 136.214 38.2727C135.122 38.2727 134.314 38.6519 133.707 39.4102C133.06 40.2107 132.737 41.2639 132.737 42.6542ZM152.306 38.5676H147.899V49.1H144.907V38.5676H142.804V36.0398H144.907V34.2283C144.907 32.8801 145.352 31.7426 146.201 30.8579C147.05 29.9732 148.141 29.5519 149.476 29.5519C149.669 29.5519 149.851 29.5638 150.022 29.5749C150.172 29.5848 150.313 29.594 150.446 29.594C150.729 29.594 150.972 29.6783 151.174 29.7625V32.4167C151.093 32.3746 150.891 32.2903 150.648 32.206C150.406 32.1218 150.123 32.0797 149.799 32.0797C149.193 32.0797 148.707 32.2903 148.384 32.6695C148.061 33.0486 147.899 33.6806 147.899 34.4389V35.9977H152.306V33.0486L155.258 32.1218V35.9977H158.25V38.5255H155.258V44.6343C155.258 45.4348 155.419 45.9824 155.662 46.3195C155.945 46.6565 156.39 46.825 156.996 46.825C157.158 46.825 157.36 46.7829 157.603 46.6986C157.845 46.6144 158.047 46.5301 158.209 46.4037V48.9315C158.007 49.0579 157.724 49.1422 157.279 49.2264C156.834 49.3107 156.43 49.3528 155.985 49.3528C154.732 49.3528 153.802 49.0158 153.195 48.3417C152.589 47.6676 152.266 46.6144 152.266 45.2241L152.306 38.5676ZM37.0332 24.8334H50.8611V39.2417H37.0332V24.8334ZM35.5779 40.7584H21.75V55.1667H35.5779V40.7584ZM37.0332 40.7583H50.8611V55.1667H37.0332V40.7583Z" fill="#2C2D2C"></path></svg> 