<?xml version="1.0" encoding="UTF-8"?> <svg xmlns="http://www.w3.org/2000/svg" width="18" height="18" viewBox="0 0 18 18" fill="none"><g clip-path="url(#clip0_560_560)"><path d="M18 3H0V15.0001H18V3Z" fill="white"></path><path d="M10.125 3H7.875V7.87498H0V10.125H7.875V15H10.125V10.125H18V7.87498H10.125V3Z" fill="#D80027"></path><path d="M13.8438 11.0869L17.9997 13.3958V11.0869H13.8438Z" fill="#0052B4"></path><path d="M10.957 11.0869L18.0005 14.9999V13.8934L12.9488 11.0869H10.957Z" fill="#0052B4"></path><path d="M16.1244 14.9999L10.957 12.1289V14.9999H16.1244Z" fill="#0052B4"></path><path d="M10.957 11.0869L18.0005 14.9999V13.8934L12.9488 11.0869H10.957Z" fill="white"></path><path d="M10.957 11.0869L18.0005 14.9999V13.8934L12.9488 11.0869H10.957Z" fill="#D80027"></path><path d="M3.17605 11.0869L0 12.8514V11.0869H3.17605Z" fill="#0052B4"></path><path d="M7.0438 11.5845V14.9999H0.896484L7.0438 11.5845Z" fill="#0052B4"></path><path d="M5.05171 11.0869L0 13.8934V14.9999L7.04348 11.0869H5.05171Z" fill="#D80027"></path><path d="M4.156 6.91293L0 4.604V6.91293H4.156Z" fill="#0052B4"></path><path d="M7.04348 6.91303L0 3V4.10651L5.05171 6.91303H7.04348Z" fill="#0052B4"></path><path d="M1.87695 3L7.04429 5.871V3H1.87695Z" fill="#0052B4"></path><path d="M7.04348 6.91303L0 3V4.10651L5.05171 6.91303H7.04348Z" fill="white"></path><path d="M7.04348 6.91303L0 3V4.10651L5.05171 6.91303H7.04348Z" fill="#D80027"></path><path d="M14.8242 6.91293L18.0003 5.14844V6.91293H14.8242Z" fill="#0052B4"></path><path d="M10.957 6.41546V3H17.1043L10.957 6.41546Z" fill="#0052B4"></path><path d="M12.9488 6.91303L18.0005 4.10651V3L10.957 6.91303H12.9488Z" fill="#D80027"></path></g><defs><clipPath id="clip0_560_560"><rect width="18" height="18" fill="white"></rect></clipPath></defs></svg> 