<svg width="210" height="22" viewBox="0 0 210 22" fill="none" xmlns="http://www.w3.org/2000/svg"><g clip-path="url(#clip0_286_1652)"><path d="M45.9927 18.0832C45.7843 18.4148 45.5592 18.7344 45.3149 19.0394 44.9054 19.538 44.4336 19.9786 43.9092 20.349 43.2266 20.8332 42.4842 21.2205 41.6987 21.5037 40.6977 21.8523 39.644 22.0193 38.5879 21.9951 37.2084 22.0121 35.841 21.7337 34.5765 21.1769 33.3935 20.654 32.3326 19.8818 31.4656 18.9135 30.5819 17.9185 29.9018 16.7566 29.4636 15.4954 28.9846 14.1204 28.7451 12.6727 28.7571 11.2154 28.7451 9.78233 28.9822 8.35891 29.4588 7.01054 29.8994 5.74932 30.5795 4.58976 31.4608 3.59241 32.3254 2.61441 33.3863 1.8325 34.5717 1.29509 35.8338.731049 37.2036.445398 38.5831.464764 39.6416.440556 40.6953.60759 41.6939.956181 42.4794 1.23941 43.2242 1.62674 43.9044 2.11089 44.4288 2.48127 44.9006 2.92185 45.3101 3.42053 45.5544 3.72555 45.7795 4.04509 45.9879 4.37432L44.891 5.14654 44.2947 4.35979C43.9594 3.94342 43.5715 3.57546 43.1356 3.2656 42.5657 2.85649 41.9454 2.52726 41.2892 2.28035 40.4391 1.97291 39.5386 1.82766 38.6357 1.84945 37.4335 1.82766 36.2385 2.07458 35.1417 2.57084 34.1383 3.03563 33.2474 3.71344 32.5313 4.56072 31.8033 5.43704 31.2501 6.44408 30.9005 7.53101 30.5197 8.71961 30.3329 9.96388 30.3449 11.213 30.3401 12.4645 30.5412 13.7064 30.9364 14.8926 31.2956 15.9844 31.8536 16.9987 32.5864 17.8798 33.3001 18.7368 34.1957 19.4194 35.2064 19.8794 36.3128 20.3756 37.5126 20.6226 38.7244 20.6032 39.5817 20.6201 40.4367 20.4749 41.2389 20.1723 41.8879 19.9254 42.5034 19.5937 43.071 19.187 43.5092 18.8723 43.9092 18.5044 44.2588 18.0928 44.5534 17.7346 44.7641 17.4707 44.8862 17.3061L45.9927 18.0759V18.0832zM57.9955 22C56.6688 22.0169 55.354 21.7482 54.1327 21.2108 52.9113 20.6758 51.8121 19.8818 50.9044 18.8844 50.0136 17.8895 49.3119 16.7299 48.8425 15.4663 47.8486 12.7429 47.8486 9.73875 48.8425 7.01538 49.3143 5.75173 50.0136 4.59218 50.9044 3.59724 51.7833 2.61925 52.8466 1.83492 54.0297 1.29751 55.2822.747993 56.6305.462341 57.9931.462341 59.3558.462341 60.7017.745572 61.9566 1.29751 63.1396 1.83734 64.2029 2.62167 65.0818 3.59724 65.9703 4.5946 66.6696 5.75416 67.1438 7.01538 68.1376 9.73875 68.1376 12.7429 67.1438 15.4663 66.672 16.7299 65.9727 17.8895 65.0818 18.8844 64.1742 19.8818 63.075 20.6734 61.856 21.2084 60.637 21.7434 59.3223 22.0145 57.9955 21.9976V22zM57.9955 2.17383C56.8532 2.1593 55.7228 2.4038 54.6811 2.88796 53.7112 3.34306 52.8443 3.99909 52.133 4.81489 51.4145 5.65974 50.8613 6.64016 50.5021 7.70288 50.1142 8.84306 49.9178 10.0462 49.925 11.2542 49.9178 12.4573 50.1118 13.6531 50.5021 14.7885 50.8637 15.8488 51.4169 16.8292 52.133 17.6765 52.8395 18.4995 53.7088 19.158 54.6811 19.6034 55.73 20.0634 56.8556 20.3006 57.9955 20.3006 59.1355 20.3006 60.261 20.0634 61.31 19.6034 62.2823 19.158 63.1516 18.4995 63.8557 17.6765 64.5693 16.8268 65.1225 15.8464 65.4865 14.7885 65.8769 13.6531 66.0709 12.4573 66.0637 11.2542 66.0709 10.0438 65.8769 8.84306 65.4865 7.70288 65.1273 6.64016 64.5741 5.65974 63.8557 4.81489 63.1444 3.99667 62.2775 3.34064 61.3076 2.88796 60.2682 2.40138 59.1379 2.15446 57.9955 2.16657V2.17383zM87.301 21.3488H85.2055L85.1385 21.2568 72.9009 4.4639V21.3488H70.7192V.464783H72.8171L72.8842.556772 85.1193 17.5748V.464783H87.3178L87.301 21.3488zM100.164 21.3488H98.0155L97.8742 21.0123 89.509.464783H92.3158L92.4523.80127 99.1434 17.5651 105.945.464783H108.663L108.359 1.22249 100.164 21.3488zM125.261 21.3488H111.216V.464783H124.49V3.18573H114.066V9.136H122.21V11.8545H114.066V18.6254H125.261V21.3464 21.3488zM143.776 21.3488H140.275L135.842 13.0455H131.522V21.3488H128.454V.467186H135.049C136.196.442978 137.341.593066 138.445.907767 139.333 1.16437 140.155 1.61463 140.852 2.22709 141.474 2.78871 141.951 3.498 142.236 4.28959 142.514 5.08118 142.65 5.91393 142.643 6.75152 142.669 8.10231 142.291 9.42647 141.558 10.5594 140.948 11.4672 140.066 12.1595 139.041 12.5372L143.773 21.3512 143.776 21.3488zM131.522 10.0486H135.621C138.299 10.0486 139.494 9.03915 139.494 6.75878 139.494 5.63554 139.185 4.83426 138.558 4.31138 137.928 3.78607 136.84 3.47379 135.451 3.47379H131.524V10.0486H131.522zM152.23 22C151.439 22.0048 150.651 21.9128 149.885 21.724 149.207 21.5521 148.549 21.3076 147.919 20.9929 147.349 20.7073 146.812 20.3563 146.322 19.9447 145.881 19.5768 145.488 19.1483 145.158 18.6714L144.695 17.9888 146.968 15.7108 147.629 16.5339C148.166 17.202 148.822 17.7588 149.562 18.1703 150.39 18.6012 151.308 18.8094 152.234 18.7779 152.802 18.7852 153.367 18.7126 153.916 18.5625 154.349 18.4463 154.756 18.2478 155.12 17.9791 155.422 17.7515 155.664 17.4513 155.824 17.1052 156.004 16.7009 156.09 16.2603 156.078 15.8173 156.092 15.3719 155.999 14.9289 155.803 14.5319 155.611 14.176 155.345 13.8686 155.024 13.6289 154.644 13.3481 154.224 13.1254 153.784 12.9632 153.255 12.7647 152.716 12.5832 152.177 12.4234 151.492 12.2346 150.781 12.0191 150.084 11.7843 149.346 11.5374 148.647 11.184 148.003 10.7385 147.349 10.2786 146.801 9.67097 146.401 8.96411 145.955 8.112 145.737 7.15337 145.768 6.18748 145.768 5.41283 145.926 4.64787 146.238 3.94342 146.549 3.23898 147.006 2.61442 147.574 2.1109 148.185 1.5759 148.886 1.16437 149.646.900509 150.51.600333 151.42.455086 152.333.46719 153.101.457507 153.865.556759 154.608.757683 155.216.924717 155.803 1.16437 156.358 1.47181 156.84 1.7381 157.285 2.06732 157.683 2.45465 157.992 2.75966 158.274 3.08889 158.53 3.44232L159.057 4.18308 156.682 6.26737 156.076 5.42736C155.918 5.21433 155.743 5.01583 155.554 4.83185 155.331 4.6164 155.084 4.43 154.818 4.27507 154.481 4.08625 154.124 3.941 153.753 3.84175 153.274 3.71829 152.778 3.65777 152.285 3.66745 151.751 3.65293 151.217 3.73524 150.709 3.90953 150.342 4.04025 150.005 4.24602 149.717 4.51473 149.488 4.73259 149.306 5.0013 149.188 5.30148 149.071 5.59923 149.011 5.91635 149.009 6.23832 148.989 6.62564 149.085 7.00812 149.284 7.33735 149.514 7.66899 149.811 7.94254 150.158 8.14105 150.613 8.40733 151.094 8.61552 151.597 8.7656 152.194 8.94958 152.792 9.12388 153.398 9.28849 154.071 9.47005 154.735 9.69276 155.384 9.95179 156.09 10.2326 156.751 10.6248 157.338 11.1162 157.946 11.6366 158.444 12.2781 158.801 13.0068 159.206 13.8807 159.404 14.8418 159.381 15.8125 159.393 16.7251 159.187 17.6281 158.784 18.439 158.401 19.1967 157.867 19.8649 157.216 20.3926 156.535 20.9324 155.764 21.3415 154.943 21.5957 154.064 21.8693 153.152 22.0072 152.234 22.0024L152.23 22zM167.037.464783H163.207V21.3488H167.037V.464783zM180.125 21.9976C178.795 22.0121 177.476 21.741 176.254 21.1987 175.033 20.6565 173.931 19.8576 173.021 18.8481 172.133 17.8532 171.438 16.6937 170.969 15.4276 169.982 12.7236 169.982 9.73635 170.969 7.03234 171.441 5.7687 172.135 4.60915 173.019 3.61179 173.9 2.62411 174.968 1.83494 176.156 1.29027 177.414.745593 178.762.464783 180.125.464783 181.487.464783 182.838.745593 184.093 1.29027 185.281 1.83494 186.349 2.62653 187.23 3.61663 188.116 4.61157 188.808 5.77354 189.28 7.03719 190.267 9.74119 190.267 12.7284 189.28 15.4324 188.811 16.6985 188.116 17.858 187.228 18.853 186.318 19.86 185.218 20.6613 183.995 21.2036 182.773 21.7458 181.454 22.0194 180.125 22.0024V21.9976zM180.125 4.19035C179.262 4.17825 178.405 4.36223 177.617 4.72777 176.884 5.07152 176.231 5.5702 175.694 6.19234 175.143 6.84352 174.722 7.60123 174.449 8.41945 174.145 9.32482 173.991 10.2762 173.999 11.2348 173.991 12.1886 174.145 13.1351 174.449 14.0356 174.727 14.8539 175.15 15.6116 175.696 16.27 176.226 16.8897 176.877 17.386 177.608 17.7225 179.219 18.41 181.027 18.41 182.639 17.7225 183.37 17.386 184.019 16.8897 184.548 16.27 185.099 15.614 185.522 14.8539 185.798 14.0332 186.104 13.1351 186.258 12.1886 186.253 11.2348 186.258 10.2762 186.104 9.32482 185.798 8.41945 185.527 7.60123 185.103 6.84352 184.553 6.19234 184.016 5.57262 183.362 5.07394 182.63 4.72777 181.842 4.36223 180.987 4.17825 180.122 4.19035H180.125zM194.596.464783H196.282L205.869 14.0453V.464783H210V22H206.487L196.898 8.59616V22H192.762V.464783H194.594 194.596z" fill="#2C2D2C"/><path d="M21.7642 0V20.6758L15.6837 14.5271V6.14877H7.39286L1.31 0H21.7642Z" fill="#66DAC7"/><path d="M15.6837 6.14874V14.527L7.39282 6.14874H15.6837Z" fill="#399090"/><path d="M15.6837 14.527V22L0 6.14874H7.39283L15.6837 14.527Z" fill="#F6876F"/></g><defs><clipPath id="clip0_286_1652"><path fill="#fff" d="M0 0H210V22H0z"/></clipPath></defs></svg>