<?xml version="1.0" encoding="UTF-8"?> <svg xmlns="http://www.w3.org/2000/svg" width="180" height="80" viewBox="0 0 180 80" fill="none"><g clip-path="url(#clip0_35_2501)"><path d="M50.6032 49.5757C45.1634 49.5757 40.7548 45.2671 40.7548 39.9526C40.7548 34.6377 45.1634 30.3333 50.6032 30.3333C52.5205 30.3333 54.3106 30.8674 55.8228 31.7933L50.6032 39.9526L60.4297 34.4103C59.3621 32.7487 57.8309 31.317 55.9793 30.2306C53.6232 28.8527 50.3458 28 46.7217 28C41.5521 28 37.0167 29.835 34.4874 32.583C32.6149 34.6144 31.5 37.1711 31.5 39.9524C31.5 42.7357 32.6149 45.2943 34.4874 47.3271C37.0233 50.0786 41.4911 51.9029 46.5754 51.9029C51.6591 51.9029 56.1256 50.0771 58.663 47.3271C58.8019 47.1757 58.9365 47.0229 59.0637 46.8643L58.6806 45.4614C56.8978 47.9471 53.945 49.5757 50.6032 49.5757Z" fill="#2C2D2C"></path><path d="M83.1819 51.3243L79.0576 36.2957C78.3951 33.8672 76.1311 32.0822 73.4358 32.0822C72.7367 32.0822 72.0669 32.2042 71.4453 32.425L62.5665 35.5787H71.6983L73.2588 41.2713C71.7451 39.9987 69.7737 39.2244 67.615 39.2244C63.3284 39.2244 59.8579 42.0303 59.8579 45.4914C59.8579 48.9529 63.3284 51.7629 67.615 51.7629C70.7009 51.7629 73.4299 50.2872 75.1132 48.02L76.0185 51.3243H83.1819ZM70.6014 48.99C68.6241 48.99 67.0212 47.4257 67.0212 45.4914C67.0212 43.56 68.6241 41.9943 70.6014 41.9943C72.5787 41.9943 74.1831 43.56 74.1831 45.4914C74.1831 47.4257 72.5787 48.99 70.6014 48.99Z" fill="#2C2D2C"></path><path d="M99.9975 32.0847C99.4564 32.0847 98.9445 32.2016 98.4882 32.4109L92.7874 35.006C92.5051 33.3483 91.0309 32.0847 89.2525 32.0847C88.7143 32.0847 88.201 32.2016 87.7388 32.4109L80.7788 35.5787H85.6723V51.3244H92.8357V37.3304C92.8357 36.3649 93.6356 35.5789 94.6272 35.5789C95.6129 35.5789 96.4188 36.3649 96.4188 37.3304V51.3244H103.579V35.5787C103.579 33.6477 101.975 32.0849 99.9975 32.0849" fill="#2C2D2C"></path><path d="M126.857 41.9941C126.857 47.4671 122.316 51.9029 116.714 51.9029C111.108 51.9029 106.564 47.4671 106.564 41.9941C106.564 36.5226 111.108 32.0847 116.714 32.0847C122.316 32.0847 126.857 36.5227 126.857 41.9941ZM117.134 35.0921C116.815 33.9261 115.588 33.234 114.395 33.5474C113.203 33.8596 112.49 35.0589 112.811 36.2247L116.29 48.8957C116.612 50.0629 117.836 50.7543 119.029 50.4457C120.223 50.13 120.932 48.9314 120.612 47.7657L117.134 35.0921Z" fill="#2C2D2C"></path><path d="M144.92 32.0847C144.377 32.0847 143.862 32.2016 143.399 32.4109L137.704 35.006C137.423 33.3483 135.949 32.0847 134.171 32.0847C133.632 32.0847 133.119 32.2016 132.655 32.4109L125.698 35.5787H130.59V51.3244H137.752V37.3304C137.752 36.3649 138.554 35.5789 139.545 35.5789C140.534 35.5789 141.334 36.3649 141.334 37.3304V51.3244H148.5V35.5787C148.5 33.6477 146.894 32.0849 144.92 32.0849" fill="#2C2D2C"></path></g><defs><clipPath id="clip0_35_2501"><rect width="117" height="24" fill="white" transform="translate(31.5 28)"></rect></clipPath></defs></svg> 