<?xml version="1.0" encoding="UTF-8"?> <svg xmlns="http://www.w3.org/2000/svg" width="180" height="80" viewBox="0 0 180 80" fill="none"><path fill-rule="evenodd" clip-rule="evenodd" d="M30.0808 33.035C30.0808 31.601 30.4905 30.7816 32.1294 30.7816H34.3827V26.8894C33.7682 26.6846 32.5391 26.6846 31.5148 26.6846C26.5984 26.6846 24.9595 28.9379 24.9595 33.2398V35.6981H21.4771V40H24.9595V52.9057H30.0808V40H33.973L34.3827 35.6981H30.0808V33.035ZM41.7574 35.2884C37.0458 35.2884 34.7924 38.9757 34.7924 43.6873V44.5067C34.7924 49.4232 37.0458 52.9057 41.7574 52.9057C44.4205 52.9057 45.8545 51.6765 46.6739 50.0377V52.7008H51.5903V35.6981H46.6739V38.3611C45.8545 36.5175 44.4205 35.2884 41.7574 35.2884ZM43.1914 49.2183C40.938 49.2183 39.9138 47.3746 39.9138 44.9164V43.6873C39.9138 41.2291 40.938 39.3854 43.1914 39.5903C45.4448 39.5903 46.469 41.0242 46.469 43.4825V45.3261C46.469 47.5795 45.2399 49.2183 43.1914 49.2183ZM62.4475 35.4932C64.496 35.4932 66.3397 35.9029 67.364 36.7223L66.1348 40.4097C65.3154 40 64.0863 39.5903 62.6524 39.5903C59.7844 39.5903 58.5553 41.2291 58.5553 43.8922V44.9164C58.5553 47.5795 59.7844 49.2183 62.6524 49.2183C64.0863 49.2183 65.3154 48.8086 66.1348 48.3989L67.364 52.0862C66.3397 52.9057 64.496 53.3154 62.4475 53.3154C56.3019 53.3154 53.6389 50.0377 53.6389 44.9164V43.8922C53.6389 38.566 56.3019 35.4932 62.4475 35.4932ZM67.9785 43.4825V44.9164C67.9785 50.0377 70.4367 53.1105 77.1969 53.1105C79.6551 53.1105 82.3182 52.496 83.7521 51.8814L82.7279 48.3989C81.0891 49.0135 79.0405 49.4232 77.1969 49.4232C74.3289 49.4232 73.3047 48.3989 73.0998 46.1455H83.957V43.4825C83.957 38.7709 81.7036 35.4932 76.3775 35.4932C70.6416 35.4932 67.9785 38.566 67.9785 43.4825ZM79.2454 42.2533V42.663H73.0998C73.0998 40.4097 74.1241 38.9757 76.1726 38.9757C78.426 38.9757 79.2454 40.4097 79.2454 42.2533ZM103.213 44.9164C103.213 49.628 100.96 53.3154 96.2481 53.3154C93.585 53.3154 91.9462 52.0863 91.1268 50.4474V53.1105H86.2104V27.0943L91.3317 26.6846V38.1563C92.1511 36.7223 93.7899 35.4932 96.0433 35.4932C100.755 35.4932 103.008 38.9757 103.008 43.8922L103.213 44.9164ZM98.0918 43.6873C98.0918 41.2291 97.0675 39.5903 94.6093 39.5903C92.5608 39.5903 91.3317 41.0242 91.3317 43.4825V45.1213C91.3317 47.5795 92.5608 49.0135 94.6093 49.0135C97.0675 49.0135 98.0918 47.1698 98.0918 44.9164V43.6873ZM104.852 43.8922V44.7116C104.852 49.628 107.72 53.1105 113.456 53.1105C118.987 53.1105 121.855 49.628 121.855 44.7116V43.8922C121.855 38.9757 118.987 35.4932 113.251 35.4932C107.72 35.4932 104.852 38.9757 104.852 43.8922ZM113.456 39.3854C115.709 39.3854 116.733 41.2291 116.733 43.4825V45.1213C116.733 47.3746 115.914 49.2183 113.456 49.2183C111.202 49.2183 110.178 47.3746 110.178 45.1213V43.4825C110.178 41.2291 110.997 39.3854 113.456 39.3854ZM123.493 44.7116V43.8922C123.493 38.9757 126.361 35.4932 131.892 35.4932C137.628 35.4932 140.291 38.9757 140.291 43.8922V44.7116C140.291 49.628 137.423 53.1105 131.892 53.1105C126.361 53.1105 123.493 49.628 123.493 44.7116ZM135.375 43.4825C135.375 41.2291 134.351 39.3854 132.097 39.3854C129.639 39.3854 128.82 41.2291 128.82 43.4825V45.1213C128.82 47.3746 129.844 49.2183 132.097 49.2183C134.555 49.2183 135.375 47.3746 135.375 45.1213V43.4825ZM152.787 35.6981L147.666 43.8922V26.6846L142.545 27.0943V52.9057H147.666V44.5067L152.992 52.9057H158.523L152.787 44.097L158.318 35.6981H152.787Z" fill="#2C2D2C"></path></svg> 